<svg xmlns="http://www.w3.org/2000/svg" viewBox="0 0 1024 1024" width="1024" height="1024">
  <g transform="translate(0,1024) scale(0.1,-0.1)" fill="#ffffff">
    <path d="M4905 8424 c-475 -40 -862 -189 -1181 -456 -322 -271 -566 -659 -706
-1122 -170 -567 -195 -1336 -62 -1936 108 -482 317 -889 618 -1199 317 -325
684 -509 1156 -577 127 -19 446 -24 593 -11 l87 8 0 -228 c0 -256 11 -369 47
-493 40 -140 94 -233 193 -331 73 -74 102 -94 191 -138 60 -29 144 -62 199
-75 196 -49 466 -58 656 -21 461 88 754 422 780 889 15 254 -53 410 -209 482
-58 27 -70 29 -187 29 -108 0 -132 -3 -173 -22 -145 -67 -193 -165 -207 -422
-4 -86 -14 -177 -20 -204 -24 -93 -125 -143 -269 -135 -131 8 -211 71 -253
198 -20 60 -22 89 -26 386 l-3 321 53 34 c29 19 97 69 152 112 578 460 875
1096 936 2002 52 786 -95 1492 -415 1990 -337 524 -806 823 -1420 905 -85 11
-446 21 -530 14z m399 -729 c600 -90 966 -573 1073 -1416 24 -191 24 -715 0
-922 -41 -340 -108 -617 -210 -861 l-42 -98 -12 119 c-31 310 -139 531 -337
690 -314 251 -881 285 -1296 78 -296 -148 -482 -401 -524 -714 l-12 -86 -42
107 c-73 185 -117 378 -148 643 -26 217 -26 773 -1 974 64 515 212 879 461
1139 107 112 189 172 321 237 221 109 505 150 769 110z m-103 -2952 c66 -29
124 -86 154 -150 46 -96 55 -178 55 -488 l0 -283 -47 -11 c-232 -52 -422 -40
-549 34 -145 85 -233 254 -234 446 0 236 120 405 330 461 87 24 226 19 291 -9z"/>
  </g>
</svg>